<?xml version="1.0" encoding="UTF-8" standalone="no"?>
<!DOCTYPE svg PUBLIC "-//W3C//DTD SVG 1.1//EN"
 "http://www.w3.org/Graphics/SVG/1.1/DTD/svg11.dtd">
<!-- Generated by graphviz version 2.43.0 (0)
 -->
<!-- Title: %3 Pages: 1 -->
<svg width="142pt" height="895pt"
 viewBox="0.00 0.00 142.00 895.00" xmlns="http://www.w3.org/2000/svg" xmlns:xlink="http://www.w3.org/1999/xlink">
<g id="graph0" class="graph" transform="scale(1 1) rotate(0) translate(4 891)">
<title>%3</title>
<polygon fill="white" stroke="transparent" points="-4,4 -4,-891 138,-891 138,4 -4,4"/>
<!-- (below main) -->
<g id="node1" class="node">
<title>(below main)</title>
<polygon fill="#ff0000" stroke="#ff0000" points="103,-784 31,-784 31,-721 103,-721 103,-784"/>
<text text-anchor="middle" x="67" y="-772" font-family="Arial" font-size="10.00" fill="#ffffff">profile</text>
<text text-anchor="middle" x="67" y="-761" font-family="Arial" font-size="10.00" fill="#ffffff">(below main)</text>
<text text-anchor="middle" x="67" y="-750" font-family="Arial" font-size="10.00" fill="#ffffff">99.98%</text>
<text text-anchor="middle" x="67" y="-739" font-family="Arial" font-size="10.00" fill="#ffffff">(0.00%)</text>
<text text-anchor="middle" x="67" y="-728" font-family="Arial" font-size="10.00" fill="#ffffff">2×</text>
</g>
<!-- main -->
<g id="node2" class="node">
<title>main</title>
<polygon fill="#ff0000" stroke="#ff0000" points="92,-681 42,-681 42,-618 92,-618 92,-681"/>
<text text-anchor="middle" x="67" y="-669" font-family="Arial" font-size="10.00" fill="#ffffff">profile</text>
<text text-anchor="middle" x="67" y="-658" font-family="Arial" font-size="10.00" fill="#ffffff">main</text>
<text text-anchor="middle" x="67" y="-647" font-family="Arial" font-size="10.00" fill="#ffffff">99.98%</text>
<text text-anchor="middle" x="67" y="-636" font-family="Arial" font-size="10.00" fill="#ffffff">(0.00%)</text>
<text text-anchor="middle" x="67" y="-625" font-family="Arial" font-size="10.00" fill="#ffffff">1×</text>
</g>
<!-- (below main)&#45;&gt;main -->
<g id="edge1" class="edge">
<title>(below main)&#45;&gt;main</title>
<path fill="none" stroke="#ff0000" stroke-width="4" d="M67,-720.92C67,-711.61 67,-701.23 67,-691.36"/>
<polygon fill="#ff0000" stroke="#ff0000" stroke-width="4" points="70.5,-691.32 67,-681.32 63.5,-691.32 70.5,-691.32"/>
<text text-anchor="middle" x="84" y="-704" font-family="Arial" font-size="10.00" fill="#ff0000">99.98%</text>
<text text-anchor="middle" x="84" y="-693" font-family="Arial" font-size="10.00" fill="#ff0000">1×</text>
</g>
<!-- mainFunction() -->
<g id="node9" class="node">
<title>mainFunction()</title>
<polygon fill="#ff0000" stroke="#ff0000" points="107.5,-578 26.5,-578 26.5,-515 107.5,-515 107.5,-578"/>
<text text-anchor="middle" x="67" y="-566" font-family="Arial" font-size="10.00" fill="#ffffff">profile</text>
<text text-anchor="middle" x="67" y="-555" font-family="Arial" font-size="10.00" fill="#ffffff">mainFunction()</text>
<text text-anchor="middle" x="67" y="-544" font-family="Arial" font-size="10.00" fill="#ffffff">99.98%</text>
<text text-anchor="middle" x="67" y="-533" font-family="Arial" font-size="10.00" fill="#ffffff">(0.00%)</text>
<text text-anchor="middle" x="67" y="-522" font-family="Arial" font-size="10.00" fill="#ffffff">1×</text>
</g>
<!-- main&#45;&gt;mainFunction() -->
<g id="edge6" class="edge">
<title>main&#45;&gt;mainFunction()</title>
<path fill="none" stroke="#ff0000" stroke-width="4" d="M67,-617.92C67,-608.61 67,-598.23 67,-588.36"/>
<polygon fill="#ff0000" stroke="#ff0000" stroke-width="4" points="70.5,-588.32 67,-578.32 63.5,-588.32 70.5,-588.32"/>
<text text-anchor="middle" x="84" y="-601" font-family="Arial" font-size="10.00" fill="#ff0000">99.98%</text>
<text text-anchor="middle" x="84" y="-590" font-family="Arial" font-size="10.00" fill="#ff0000">1×</text>
</g>
<!-- 0x00000000000202b0 -->
<g id="node3" class="node">
<title>0x00000000000202b0</title>
<polygon fill="#ff0000" stroke="#ff0000" points="122.5,-887 11.5,-887 11.5,-824 122.5,-824 122.5,-887"/>
<text text-anchor="middle" x="67" y="-875" font-family="Arial" font-size="10.00" fill="#ffffff">ld&#45;linux&#45;x86&#45;64.so.2</text>
<text text-anchor="middle" x="67" y="-864" font-family="Arial" font-size="10.00" fill="#ffffff">0x00000000000202b0</text>
<text text-anchor="middle" x="67" y="-853" font-family="Arial" font-size="10.00" fill="#ffffff">100.00%</text>
<text text-anchor="middle" x="67" y="-842" font-family="Arial" font-size="10.00" fill="#ffffff">(0.00%)</text>
<text text-anchor="middle" x="67" y="-831" font-family="Arial" font-size="10.00" fill="#ffffff">0×</text>
</g>
<!-- 0x00000000000202b0&#45;&gt;(below main) -->
<g id="edge2" class="edge">
<title>0x00000000000202b0&#45;&gt;(below main)</title>
<path fill="none" stroke="#ff0000" stroke-width="4" d="M67,-823.92C67,-814.61 67,-804.23 67,-794.36"/>
<polygon fill="#ff0000" stroke="#ff0000" stroke-width="4" points="70.5,-794.32 67,-784.32 63.5,-794.32 70.5,-794.32"/>
<text text-anchor="middle" x="84" y="-807" font-family="Arial" font-size="10.00" fill="#ff0000">99.98%</text>
<text text-anchor="middle" x="84" y="-796" font-family="Arial" font-size="10.00" fill="#ff0000">1×</text>
</g>
<!-- 0x00000000001090d0 -->
<g id="node4" class="node">
<title>0x00000000001090d0</title>
<polygon fill="#0ab60a" stroke="#0ab60a" points="122.5,-269 11.5,-269 11.5,-206 122.5,-206 122.5,-269"/>
<text text-anchor="middle" x="67" y="-257" font-family="Arial" font-size="10.00" fill="#ffffff">???</text>
<text text-anchor="middle" x="67" y="-246" font-family="Arial" font-size="10.00" fill="#ffffff">0x00000000001090d0</text>
<text text-anchor="middle" x="67" y="-235" font-family="Arial" font-size="10.00" fill="#ffffff">49.99%</text>
<text text-anchor="middle" x="67" y="-224" font-family="Arial" font-size="10.00" fill="#ffffff">(10.00%)</text>
<text text-anchor="middle" x="67" y="-213" font-family="Arial" font-size="10.00" fill="#ffffff">500000000×</text>
</g>
<!-- sqrt -->
<g id="node5" class="node">
<title>sqrt</title>
<polygon fill="#0ba84a" stroke="#0ba84a" points="102,-166 32,-166 32,-103 102,-103 102,-166"/>
<text text-anchor="middle" x="67" y="-154" font-family="Arial" font-size="10.00" fill="#ffffff">libm.so.6</text>
<text text-anchor="middle" x="67" y="-143" font-family="Arial" font-size="10.00" fill="#ffffff">sqrt</text>
<text text-anchor="middle" x="67" y="-132" font-family="Arial" font-size="10.00" fill="#ffffff">39.99%</text>
<text text-anchor="middle" x="67" y="-121" font-family="Arial" font-size="10.00" fill="#ffffff">(24.99%)</text>
<text text-anchor="middle" x="67" y="-110" font-family="Arial" font-size="10.00" fill="#ffffff">500000000×</text>
</g>
<!-- 0x00000000001090d0&#45;&gt;sqrt -->
<g id="edge3" class="edge">
<title>0x00000000001090d0&#45;&gt;sqrt</title>
<path fill="none" stroke="#0ba84a" stroke-width="1.6" d="M67,-205.92C67,-195.44 67,-183.59 67,-172.65"/>
<polygon fill="#0ba84a" stroke="#0ba84a" stroke-width="1.6" points="69.21,-172.62 67,-166.32 64.8,-172.62 69.21,-172.62"/>
<text text-anchor="middle" x="94" y="-189" font-family="Arial" font-size="10.00" fill="#0ba84a">39.99%</text>
<text text-anchor="middle" x="94" y="-178" font-family="Arial" font-size="10.00" fill="#0ba84a">500000000×</text>
</g>
<!-- __sqrt_finite@GLIBC_2.15 -->
<g id="node6" class="node">
<title>__sqrt_finite@GLIBC_2.15</title>
<polygon fill="#0c5586" stroke="#0c5586" points="134,-63 0,-63 0,0 134,0 134,-63"/>
<text text-anchor="middle" x="67" y="-51" font-family="Arial" font-size="10.00" fill="#ffffff">libm.so.6</text>
<text text-anchor="middle" x="67" y="-40" font-family="Arial" font-size="10.00" fill="#ffffff">__sqrt_finite@GLIBC_2.15</text>
<text text-anchor="middle" x="67" y="-29" font-family="Arial" font-size="10.00" fill="#ffffff">15.00%</text>
<text text-anchor="middle" x="67" y="-18" font-family="Arial" font-size="10.00" fill="#ffffff">(15.00%)</text>
<text text-anchor="middle" x="67" y="-7" font-family="Arial" font-size="10.00" fill="#ffffff">500000000×</text>
</g>
<!-- sqrt&#45;&gt;__sqrt_finite@GLIBC_2.15 -->
<g id="edge8" class="edge">
<title>sqrt&#45;&gt;__sqrt_finite@GLIBC_2.15</title>
<path fill="none" stroke="#0c5586" stroke-width="0.6" d="M67,-102.92C67,-91.75 67,-79.04 67,-67.51"/>
<polygon fill="#0c5586" stroke="#0c5586" stroke-width="0.6" points="68.37,-67.22 67,-63.32 65.64,-67.22 68.37,-67.22"/>
<text text-anchor="middle" x="94" y="-86" font-family="Arial" font-size="10.00" fill="#0c5586">15.00%</text>
<text text-anchor="middle" x="94" y="-75" font-family="Arial" font-size="10.00" fill="#0c5586">500000000×</text>
</g>
<!-- heavyCalculation() -->
<g id="node7" class="node">
<title>heavyCalculation()</title>
<polygon fill="#ff0000" stroke="#ff0000" points="116,-372 18,-372 18,-309 116,-309 116,-372"/>
<text text-anchor="middle" x="67" y="-360" font-family="Arial" font-size="10.00" fill="#ffffff">profile</text>
<text text-anchor="middle" x="67" y="-349" font-family="Arial" font-size="10.00" fill="#ffffff">heavyCalculation()</text>
<text text-anchor="middle" x="67" y="-338" font-family="Arial" font-size="10.00" fill="#ffffff">99.98%</text>
<text text-anchor="middle" x="67" y="-327" font-family="Arial" font-size="10.00" fill="#ffffff">(49.99%)</text>
<text text-anchor="middle" x="67" y="-316" font-family="Arial" font-size="10.00" fill="#ffffff">5000×</text>
</g>
<!-- heavyCalculation()&#45;&gt;0x00000000001090d0 -->
<g id="edge4" class="edge">
<title>heavyCalculation()&#45;&gt;0x00000000001090d0</title>
<path fill="none" stroke="#0ab60a" stroke-width="2" d="M67,-308.92C67,-298.73 67,-287.25 67,-276.57"/>
<polygon fill="#0ab60a" stroke="#0ab60a" stroke-width="2" points="69.49,-276.42 67,-269.32 64.52,-276.42 69.49,-276.42"/>
<text text-anchor="middle" x="94" y="-292" font-family="Arial" font-size="10.00" fill="#0ab60a">49.99%</text>
<text text-anchor="middle" x="94" y="-281" font-family="Arial" font-size="10.00" fill="#0ab60a">500000000×</text>
</g>
<!-- intermediateFunction() -->
<g id="node8" class="node">
<title>intermediateFunction()</title>
<polygon fill="#ff0000" stroke="#ff0000" points="123.5,-475 10.5,-475 10.5,-412 123.5,-412 123.5,-475"/>
<text text-anchor="middle" x="67" y="-463" font-family="Arial" font-size="10.00" fill="#ffffff">profile</text>
<text text-anchor="middle" x="67" y="-452" font-family="Arial" font-size="10.00" fill="#ffffff">intermediateFunction()</text>
<text text-anchor="middle" x="67" y="-441" font-family="Arial" font-size="10.00" fill="#ffffff">99.98%</text>
<text text-anchor="middle" x="67" y="-430" font-family="Arial" font-size="10.00" fill="#ffffff">(0.00%)</text>
<text text-anchor="middle" x="67" y="-419" font-family="Arial" font-size="10.00" fill="#ffffff">5×</text>
</g>
<!-- intermediateFunction()&#45;&gt;heavyCalculation() -->
<g id="edge5" class="edge">
<title>intermediateFunction()&#45;&gt;heavyCalculation()</title>
<path fill="none" stroke="#ff0000" stroke-width="4" d="M67,-411.92C67,-402.61 67,-392.23 67,-382.36"/>
<polygon fill="#ff0000" stroke="#ff0000" stroke-width="4" points="70.5,-382.32 67,-372.32 63.5,-382.32 70.5,-382.32"/>
<text text-anchor="middle" x="84" y="-395" font-family="Arial" font-size="10.00" fill="#ff0000">99.98%</text>
<text text-anchor="middle" x="84" y="-384" font-family="Arial" font-size="10.00" fill="#ff0000">5000×</text>
</g>
<!-- mainFunction()&#45;&gt;intermediateFunction() -->
<g id="edge7" class="edge">
<title>mainFunction()&#45;&gt;intermediateFunction()</title>
<path fill="none" stroke="#ff0000" stroke-width="4" d="M67,-514.92C67,-505.61 67,-495.23 67,-485.36"/>
<polygon fill="#ff0000" stroke="#ff0000" stroke-width="4" points="70.5,-485.32 67,-475.32 63.5,-485.32 70.5,-485.32"/>
<text text-anchor="middle" x="84" y="-498" font-family="Arial" font-size="10.00" fill="#ff0000">99.98%</text>
<text text-anchor="middle" x="84" y="-487" font-family="Arial" font-size="10.00" fill="#ff0000">5×</text>
</g>
</g>
</svg>
